<svg width="22" height="22" viewBox="0 0 22 22" fill="none" xmlns="http://www.w3.org/2000/svg">
<path d="M0.506448 11.0134C0.300838 5.59992 5.04257 0.597198 10.4615 0.532293C13.2234 0.296726 15.9104 1.36926 18.0005 3.11853C17.1431 4.06125 16.2708 4.99307 15.339 5.86544C13.4989 4.74752 11.2835 3.89558 9.13299 4.65221C5.6644 5.63986 3.56382 9.73526 4.8474 13.1285C5.9104 16.6724 10.2209 18.6173 13.5992 17.1286C15.3485 16.5022 16.5018 14.8882 17.0079 13.1539C15.0031 13.114 12.9978 13.1389 10.993 13.0836C10.988 11.8908 10.983 10.7025 10.988 9.50968C14.3313 9.50469 17.6796 9.49471 21.028 9.52466C21.2336 12.4472 20.8024 15.5749 18.9024 17.9206C16.3007 21.2689 11.4941 22.2516 7.58388 20.9381C3.43401 19.575 0.416125 15.3943 0.506448 11.0134Z" fill="#EA4335"/>
</svg>
